<svg width="580" height="454" viewBox="0 0 580 454" fill="none" xmlns="http://www.w3.org/2000/svg">
<g clip-path="url(#clip0_241_3976)">
<path d="M78.3235 109.37V126.17H20.1077V43.3379H77.2735V60.1376H39.2407V76.2374H71.9069V91.7539H39.2407V109.37H78.3235ZM83.4549 84.054C83.4549 79.0763 84.3883 74.1374 86.2549 69.2375C88.1215 64.2598 90.8437 59.8265 94.4214 55.9377C97.9992 52.0489 102.355 48.8989 107.488 46.4878C112.621 44.0768 118.454 42.8712 124.988 42.8712C132.765 42.8712 139.493 44.5434 145.171 47.8878C150.926 51.2322 155.204 55.5877 158.004 60.9543L143.304 71.2208C142.371 69.0431 141.165 67.2542 139.687 65.8542C138.287 64.3765 136.732 63.2098 135.021 62.3543C133.31 61.421 131.56 60.7987 129.771 60.4876C127.982 60.0988 126.232 59.9043 124.521 59.9043C120.866 59.9043 117.677 60.6432 114.954 62.121C112.232 63.5987 109.977 65.5042 108.188 67.8375C106.399 70.1708 105.077 72.8152 104.221 75.7708C103.366 78.7263 102.938 81.7207 102.938 84.754C102.938 88.0206 103.444 91.1705 104.455 94.2038C105.466 97.2371 106.905 99.9204 108.771 102.254C110.716 104.587 113.01 106.454 115.654 107.854C118.377 109.176 121.41 109.837 124.754 109.837C126.465 109.837 128.215 109.643 130.004 109.254C131.871 108.787 133.621 108.126 135.254 107.27C136.965 106.337 138.521 105.17 139.921 103.77C141.321 102.293 142.449 100.504 143.304 98.4038L158.937 107.62C157.693 110.654 155.826 113.376 153.337 115.787C150.926 118.198 148.126 120.22 144.937 121.853C141.749 123.487 138.365 124.731 134.788 125.587C131.21 126.442 127.71 126.87 124.288 126.87C118.299 126.87 112.777 125.664 107.721 123.253C102.744 120.765 98.4269 117.498 94.7714 113.454C91.1937 109.409 88.3938 104.82 86.3716 99.6871C84.4271 94.5538 83.4549 89.3428 83.4549 84.054ZM239.842 43.3379V126.17H220.709V92.2205H187.692V126.17H168.559V43.3379H187.692V75.4208H220.709V43.3379H239.842ZM278.233 43.3379H295.499L325.715 126.17H306.116L299.699 107.62H273.916L267.616 126.17H248.016L278.233 43.3379ZM296.549 94.4372L286.866 65.1542L276.949 94.4372H296.549ZM387.729 118.003C381.429 123.837 374.157 126.753 365.913 126.753C360.468 126.753 355.335 125.742 350.513 123.72C345.691 121.62 341.452 118.703 337.796 114.97C334.219 111.237 331.38 106.765 329.28 101.554C327.18 96.2649 326.13 90.4705 326.13 84.1706C326.13 78.4929 327.18 73.1264 329.28 68.0709C331.38 63.0154 334.258 58.621 337.913 54.8877C341.646 51.1544 346.041 48.1989 351.096 46.0212C356.152 43.8434 361.596 42.7546 367.429 42.7546C375.129 42.7546 381.857 44.3879 387.612 47.6545C393.368 50.8433 397.685 55.2377 400.562 60.8376L386.329 71.5708C384.463 67.8375 381.74 64.9598 378.163 62.9376C374.663 60.8376 370.852 59.7877 366.729 59.7877C363.541 59.7877 360.624 60.4488 357.98 61.771C355.413 63.0154 353.196 64.8042 351.33 67.1375C349.463 69.3931 348.024 72.0375 347.013 75.0708C346.002 78.1041 345.496 81.3707 345.496 84.8706C345.496 88.4484 346.041 91.7539 347.13 94.7872C348.219 97.8204 349.735 100.465 351.68 102.72C353.624 104.898 355.918 106.609 358.563 107.854C361.285 109.098 364.279 109.72 367.546 109.72C375.013 109.72 381.74 106.259 387.729 99.3371V96.7705H371.629V82.8873H403.596V126.17H387.729V118.003ZM451.827 109.837C455.094 109.837 457.855 109.176 460.111 107.854C462.366 106.454 464.194 104.626 465.594 102.37C466.994 100.115 467.966 97.5482 468.511 94.6705C469.133 91.715 469.444 88.7206 469.444 85.6873V43.3379H488.577V85.6873C488.577 91.4428 487.838 96.8093 486.36 101.787C484.96 106.765 482.744 111.12 479.71 114.854C476.755 118.587 472.944 121.542 468.277 123.72C463.688 125.82 458.205 126.87 451.827 126.87C445.216 126.87 439.578 125.742 434.911 123.487C430.244 121.231 426.433 118.237 423.478 114.504C420.6 110.692 418.461 106.298 417.061 101.32C415.739 96.3427 415.078 91.1317 415.078 85.6873V43.3379H434.211V85.6873C434.211 88.8761 434.522 91.9094 435.144 94.7872C435.767 97.6649 436.778 100.232 438.178 102.487C439.578 104.743 441.366 106.531 443.544 107.854C445.8 109.176 448.561 109.837 451.827 109.837ZM561.617 109.37V126.17H503.402V43.3379H560.567V60.1376H522.535V76.2374H555.201V91.7539H522.535V109.37H561.617Z" fill="#0F46B1"/>
<path d="M24.111 25V4.78145H28.7812V25H24.111ZM186.964 14.7199C186.964 13.5049 187.192 12.2993 187.648 11.1033C188.103 9.8883 188.768 8.80618 189.641 7.85695C190.515 6.90772 191.578 6.13885 192.831 5.55033C194.084 4.96181 195.507 4.66755 197.102 4.66755C199.001 4.66755 200.643 5.07571 202.029 5.89205C203.433 6.70839 204.478 7.77152 205.161 9.08145L201.573 11.5874C201.345 11.0558 201.051 10.6192 200.69 10.2775C200.349 9.91677 199.969 9.63201 199.551 9.42317C199.133 9.19536 198.706 9.04348 198.27 8.96755C197.833 8.87262 197.406 8.82516 196.988 8.82516C196.096 8.82516 195.318 9.00552 194.653 9.36622C193.989 9.72693 193.438 10.1921 193.001 10.7616C192.565 11.3311 192.242 11.9766 192.033 12.698C191.824 13.4194 191.72 14.1503 191.72 14.8907C191.72 15.6881 191.843 16.457 192.09 17.1973C192.337 17.9377 192.688 18.5927 193.144 19.1623C193.618 19.7318 194.179 20.1874 194.824 20.5291C195.488 20.8519 196.229 21.0132 197.045 21.0132C197.463 21.0132 197.89 20.9658 198.327 20.8709C198.782 20.757 199.209 20.5956 199.608 20.3868C200.026 20.1589 200.405 19.8742 200.747 19.5324C201.089 19.1717 201.364 18.7351 201.573 18.2225L205.389 20.4722C205.085 21.2126 204.63 21.877 204.022 22.4656C203.433 23.0541 202.75 23.5477 201.972 23.9464C201.193 24.345 200.367 24.6488 199.494 24.8576C198.621 25.0664 197.767 25.1709 196.931 25.1709C195.469 25.1709 194.122 24.8766 192.888 24.2881C191.673 23.6806 190.619 22.8832 189.727 21.896C188.853 20.9088 188.17 19.7887 187.676 18.5358C187.202 17.2828 186.964 16.0108 186.964 14.7199ZM363.221 25V4.78145H370.767C372.438 4.78145 373.9 5.04724 375.153 5.5788C376.406 6.11037 377.45 6.83178 378.285 7.74304C379.14 8.6543 379.776 9.72693 380.193 10.9609C380.63 12.1759 380.848 13.4764 380.848 14.8622C380.848 16.4 380.611 17.7954 380.136 19.0483C379.662 20.2823 378.978 21.3455 378.086 22.2377C377.213 23.111 376.15 23.7945 374.897 24.2881C373.663 24.7627 372.286 25 370.767 25H363.221ZM376.093 14.8622C376.093 13.97 375.969 13.1631 375.722 12.4417C375.495 11.7013 375.153 11.0653 374.697 10.5338C374.242 10.0022 373.682 9.59404 373.017 9.30927C372.353 9.0245 371.603 8.88212 370.767 8.88212H367.891V20.8993H370.767C371.622 20.8993 372.381 20.7475 373.046 20.4437C373.71 20.14 374.261 19.7223 374.697 19.1907C375.153 18.6402 375.495 18.0042 375.722 17.2828C375.969 16.5424 376.093 15.7355 376.093 14.8622ZM539.089 25V4.78145H547.717C548.686 4.78145 549.568 4.98079 550.366 5.37947C551.182 5.77814 551.875 6.30022 552.444 6.94569C553.033 7.59117 553.489 8.32207 553.811 9.13841C554.153 9.95474 554.324 10.7806 554.324 11.6159C554.324 12.5082 554.163 13.3625 553.84 14.1788C553.536 14.9951 553.099 15.726 552.53 16.3715C551.979 17.017 551.305 17.5296 550.508 17.9093C549.711 18.289 548.828 18.4788 547.86 18.4788H543.759V25H539.089ZM543.759 14.4066H547.575C548.125 14.4066 548.6 14.1693 548.999 13.6947C549.397 13.2201 549.597 12.5271 549.597 11.6159C549.597 11.1413 549.53 10.7331 549.397 10.3914C549.284 10.0497 549.122 9.7649 548.913 9.53708C548.705 9.30927 548.467 9.1479 548.201 9.05298C547.936 8.93907 547.67 8.88212 547.404 8.88212H543.759V14.4066Z" fill="#0F46B1"/>
<mask id="mask0_241_3976" style="mask-type:alpha" maskUnits="userSpaceOnUse" x="-127" y="169" width="812" height="517">
<rect width="811.147" height="516.35" transform="matrix(1 0 0 -1 -127 685.724)" fill="#D9D9D9"/>
</mask>
<g mask="url(#mask0_241_3976)">
<circle cx="267.86" cy="267.86" r="267.86" transform="matrix(1 0 0 -1 21.3037 437.537)" fill="#FBCA01"/>
<mask id="mask1_241_3976" style="mask-type:alpha" maskUnits="userSpaceOnUse" x="21" y="-99" width="537" height="537">
<circle cx="267.86" cy="267.86" r="267.86" transform="matrix(1 0 0 -1 21.3037 437.537)" fill="#0066FF"/>
</mask>
<g mask="url(#mask1_241_3976)">
<path d="M49.4932 -477.698V816.447" stroke="#0F46B1" stroke-width="62.2185"/>
<path d="M170.818 -477.698V816.448" stroke="#0F46B1" stroke-width="62.2185"/>
<path d="M292.145 -477.698V816.448" stroke="#0F46B1" stroke-width="62.2185"/>
<path d="M413.471 -477.698V816.448" stroke="#0F46B1" stroke-width="62.2185"/>
<path d="M534.795 -477.698V816.448" stroke="#0F46B1" stroke-width="62.2185"/>
</g>
</g>
</g>
<defs>
<clipPath id="clip0_241_3976">
<rect width="580" height="454" fill="white"/>
</clipPath>
</defs>
</svg>
